<?xml version="1.0" standalone="no"?>
<!DOCTYPE svg PUBLIC "-//W3C//DTD SVG 1.1//EN" "http://www.w3.org/Graphics/SVG/1.1/DTD/svg11.dtd" >

<svg color-interpolation-filters="sRGB" fill-rule="evenodd" pointer-events="none" width="1400" height="1500" xmlns="http://www.w3.org/2000/svg" xmlns:xlink="http://www.w3.org/1999/xlink">
<metadata>
Copyright (c) 1977, Estructuras Métalicas Frutos S.A. All rights reserved.
</metadata>

<g><path d="M 1233 141 l -524 302 l 0 980 l 171 -98 l 0 -407 l 222 -128 l 0 -168 l -222 128 l 0 -196 l 353 -203 l 0 -210 z" fill="rgb(255,255,255)" fill-opacity="1.000" class=""></path><path d="M 1229 135 l -108 -41" stroke-linecap="round" stroke-width="20" stroke-linejoin="round" stroke="rgb(255,255,255)" stroke-opacity="1.000" fill="none" class=""></path><path d="M 709 1423 l 0 -980 l 524 -302 l 0 210 l -353 203 l 0 196 l 222 -128 l 0 168 l -222 128 l 0 407 l -171 98 m -2 -1093 l 414 -238" stroke-linecap="round" stroke-width="20" stroke-linejoin="round" stroke="rgb(255,255,255)" stroke-opacity="1.000" fill="none" class=""></path><path d="M 357 1008 l 0 -195 l 223 128 l 0 -167 l -223 -129 l 0 -407 l -171 -98 l 0 979 l 525 303 l -1 -210 l -353 -204" stroke-linecap="round" stroke-width="20" stroke-linejoin="round" stroke="rgb(255,255,255)" stroke-opacity="1.000" fill="rgb(255,255,255)" fill-opacity="1.000"></path><path d="M 357 1008 l 0 -195 l 223 128 l 0 -167 l -223 -129 l 0 -407 l -171 -98 l 0 979 l 525 303 l -1 -210 l -353 -204" stroke-linecap="round" stroke-width="20" stroke-linejoin="round" stroke="rgb(255,255,255)" stroke-opacity="1.000" fill="rgb(255,255,255)" fill-opacity="1.000"></path><path d="M 357 1008 l 0 -195 l 223 128 l 0 -167 l -223 -129 l 0 -407 l -171 -98 l 0 979 l 525 303 l -1 -210 l -353 -204" stroke-linecap="round" stroke-width="20" stroke-linejoin="round" stroke="rgb(255,255,255)" stroke-opacity="1.000" fill="rgb(255,255,255)" fill-opacity="1.000"></path><path d="M 357 1008 l 0 -195 l 223 128 l 0 -167 l -223 -129 l 0 -407 l -171 -98 l 0 979 l 525 303 l -1 -210 l -353 -204" stroke-linecap="round" stroke-width="20" stroke-linejoin="round" stroke="rgb(255,255,255)" stroke-opacity="1.000" fill="rgb(255,255,255)" fill-opacity="1.000"></path><path d="M 359 443 l 1 575 l -171 97 l 0 -979 l 520 311 l 0 187 l -350 -191" stroke-linecap="round" stroke-width="20" stroke-linejoin="round" stroke="rgb(255,255,255)" stroke-opacity="1.000" fill="rgb(255,255,255)" fill-opacity="1.000"></path><path d="M 420 851 l 0 119" stroke-linecap="round" stroke-width="20" stroke-linejoin="round" stroke="rgb(255,255,255)" stroke-opacity="1.000" fill="none"></path><path d="M 1233 141 l -524 302 l 0 980 l 171 -98 l 0 -407 l 222 -128 l 0 -168 l -222 128 l 0 -196 l 353 -203 l 0 -210 z" fill="rgb(255,255,255)" fill-opacity="1.000"></path><path d="M 420 600 l 0 -120 m -64 161 l 62 -34" stroke-linecap="round" stroke-width="20" stroke-linejoin="round" stroke="rgb(255,255,255)" stroke-opacity="1.000" fill="none"></path><path d="M 709 1423 l 0 -980 l 524 -302 l 0 210 l -353 203 l 0 196 l 222 -128 l 0 168 l -222 128 l 0 407 l -171 98 m -291 -823 l 220 125" stroke-linecap="round" stroke-width="20" stroke-linejoin="round" stroke="rgb(255,255,255)" stroke-opacity="1.000" fill="none"></path><path d="M 1233 141 l -524 302 l 0 980 l 171 -98 l 0 -407 l 222 -128 l 0 -168 l -222 128 l 0 -196 l 353 -203 l 0 -210 z" fill="rgb(255,255,255)" fill-opacity="1.000"></path><path d="M 580 773 l 53 -52 m 3 7 l 0 161" stroke-linecap="round" stroke-width="20" stroke-linejoin="round" stroke="rgb(255,255,255)" stroke-opacity="1.000" fill="none"></path><path d="M 709 1423 l 0 -980 l 524 -302 l 0 210 l -353 203 l 0 196 l 222 -128 l 0 168 l -222 128 l 0 407 l -171 98 m -73 -534 l -51 50" stroke-linecap="round" stroke-width="20" stroke-linejoin="round" stroke="rgb(255,255,255)" stroke-opacity="1.000" fill="none"></path><path d="M 707 439 l 3 -109 m -286 639 l 281 154 m 177 -436 l 148 -89" stroke-linecap="round" stroke-width="20" stroke-linejoin="round" stroke="rgb(255,255,255)" stroke-opacity="1.000" fill="none"></path><path d="M 301 85 l 409 245 m 395 291 l -75 -23 m -605 371 l -71 38" stroke-linecap="round" stroke-width="20" stroke-linejoin="round" stroke="rgb(255,255,255)" stroke-opacity="1.000" fill="none"></path><path d="M 185 133 l 116 -52" stroke-linecap="round" stroke-width="20" stroke-linejoin="round" stroke="rgb(255,255,255)" stroke-opacity="1.000" fill="none"></path></g>
</svg>
